PathFileType	4	(X/Y/Z)	T00_JumpTrial_0-2667.trc
DataRate	CameraRate	NumFrames	NumMarkers	Units	OrigDataRate	OrigDataStartFrame	OrigNumFrames
30	30	6	21	m	30	1333	2667
Frame#	Time	RHip			RKnee			RAnkle			RBigToe			RSmallToe			RHeel			LHip			LKnee			LAnkle			LBigToe			LSmallToe			LHeel			Neck			Head			Nose			RShoulder			RElbow			RWrist			LShoulder			LElbow			LWrist		
		X1	Y1	Z1	X2	Y2	Z2	X3	Y3	Z3	X4	Y4	Z4	X5	Y5	Z5	X6	Y6	Z6	X7	Y7	Z7	X8	Y8	Z8	X9	Y9	Z9	X10	Y10	Z10	X11	Y11	Z11	X12	Y12	Z12	X13	Y13	Z13	X14	Y14	Z14	X15	Y15	Z15	X16	Y16	Z16	X17	Y17	Z17	X18	Y18	Z18	X19	Y19	Z19	X20	Y20	Z20	X21	Y21	Z21
1334	44.46666666666667				-5.646561409950438	2.8015881055474763	0.7698089740767952	-5.163221846214734	3.7094582442285993	1.0447466037723012	-5.080606510956883	3.6270984092257015	1.5877146566138016	-5.27461977580254	3.883702851533788	1.5033258256759723	-5.197197974264213	3.8812866365001604	1.010849857823119				-4.687570499482165	2.237311164827866	0.20079133870781662	-4.717276230417477	3.3231853160242957	-0.036902237264987814	-4.594772618010325	3.2991108787753998	0.5012869331755887	-4.1998022894030225	3.001307653120419	0.4422157993572508	-4.759991892088874	3.479517392051505	-0.11289244354430747	-5.9982933524723165	-0.38877236359172807	0.3195799179317918	-5.709284097036885	-1.2336584413248795	0.6716899018088777	-6.162717563592631	-0.6302078848344475	0.8408819532976912	-6.753462374220993	0.0887178058725456	0.08090304694384684	-6.650059834768749	1.1904282583538366	0.05221383268236832	-6.63424677044166	2.0042905344777253	0.30650043555505113									
1335	44.5				-5.6437986427560505	2.813516155269337	0.8210376189323917	-5.197930124950325	3.7352313949365694	1.162823778752076	-5.194541703927269	3.673364777378392	1.7115935849412902	-5.2572556093246705	3.824072451989223	1.6352792251994193	-5.124697896424679	3.82849988444914	1.1191577500768803				-4.820342964709004	2.3088145026709834	0.2076573591000394	-4.663288726250336	3.2913623160824153	-0.026568499598752803	-4.6429172998410415	3.3464678826530645	0.4906162819674988	-4.1634465826128135	3.0048706885445853	0.43121122197007067	-4.791903484146548	3.5090063013362913	-0.1174440851233645	-5.989637037308559	-0.38242009545864325	0.37647901192361055	-6.142345384083628	-1.1721226535117222	0.7449925974233597	-6.156375253950324	-0.6163384386625407	0.8701118023719915	-6.669724431843697	0.08464018380389446	0.13391290064255615	-6.805378676943387	1.2504252135446055	0.10247723141132763	-6.773846848260798	2.0791275215232115	0.3736323870862378									
1336	44.53333333333333				-5.668597972283061	2.8472620318230084	0.8761694921241302	-5.146068566828012	3.703481764523686	1.2413713447052415	-5.3018999820041985	3.7399160483948783	1.8017364683011603	-5.343791499814323	3.866275038088306	1.7301290885037794	-5.143890856538232	3.846327987519283	1.2045057295632995				-4.851308080392715	2.3189165487026107	0.2187229424321151	-4.665756897328352	3.2902700908544205	-0.025933660821869976	-4.527334364550759	3.275304516596789	0.4971541796171681	-4.1566562863719625	3.009288437515155	0.4301946647346007	-4.757588408317283	3.4834949203173085	-0.11386260815423123	-6.118016215474598	-0.35187873382185986	0.41604663478804993	-6.052640973076854	-1.1574696864790535	0.8075143445121193	-6.128450624243957	-0.6048524630705775	0.9363713720809378	-6.912516324859576	0.1592205578371185	0.17152769985106134	-6.637726816438109	1.2115231651873453	0.17886942275239878	-6.6797463294109924	2.0508206366281434	0.44921213670746923									
1337	44.56666666666667				-5.626051819595493	2.838456599127326	0.9471408030296171	-5.297603331254986	3.8035067544392023	1.2975344205428267	-5.3305610153738145	3.777192526245391	1.8497037029914571	-5.442945987050006	3.9531223168533516	1.7787212784179343	-5.24567669521143	3.9364587093513035	1.2464375409126132				-4.881347872530746	2.3427225958915168	0.23822794697178	-4.715117744613108	3.3221666430992935	-0.027595142850896027	-3.8942805948687798	2.845964681947977	0.48763161733636623	-3.9657263604143806	2.881681347248528	0.43649976448816913	-4.6904679026336495	3.441513601418698	-0.10629140058460143	-6.179194982578684	-0.33390336394995485	0.474802518905185	-5.902975219083588	-1.1638609241021718	0.8647494681026132	-6.106004994353463	-0.6007995845717699	1.0021841839822276	-6.904595386106569	0.1703964635445943	0.2445272345228081	-6.705212998917443	1.2472358596277937	0.23192823810167532	-6.494363376968833	1.983828853830905	0.521883572780352									
1338	44.6				-5.61126552415808	2.85669471345798	1.0086346391535401	-5.302089335156891	3.8281006534493276	1.3087072160777233	-5.193328895332749	3.7131333129955615	1.8595355139827043	-5.234009759308819	3.839744941519881	1.7891989300254845	-5.1656385440464785	3.8979479613903436	1.259449720256963				-4.83088563043171	2.3184523327988806	0.27844982391895123	-4.686402791903977	3.2970307884076235	-0.02396931004677288	-4.540698774319272	3.2627117865711233	0.5004138352302254	-4.062344374036644	2.939840941689572	0.4387680778062117	-4.694855664003223	3.429604755907614	-0.10567741035117874	-6.027978585381048	-0.34886032623804236	0.5483527603513422	-6.083509626594572	-1.1381815357351783	0.9038117594697198	-6.280804806108322	-0.5671315754574551	1.0641172024620196	-6.969969670238914	0.19256080158974545	0.3180060747266641	-6.870182481626874	1.2962442834689014	0.28463677793498293	-6.546987332891797	2.0298710014383308	0.5993317841258887									
1339	44.63333333333333				-5.601800462686297	2.8351368018532566	1.038587690862597	-5.293139038617762	3.827363720699607	1.3183097448662917	-5.114185536063558	3.6989209096472386	1.8691686222612753	-5.227807549438521	3.863964085670266	1.8104093717539413	-5.050714124284179	3.8143480918722794	1.2664568679686556				-4.914942179588038	2.3349177117719857	0.29823233656359055	-4.714099284049821	3.313604056229856	-0.027777366341164813	-4.654546279543845	3.3692004056319913	0.49809867432680754	-4.208173534313979	3.0365421048768777	0.44073695289928255	-4.691583737890034	3.4312506607989137	-0.10622675395073077	-6.154724069365852	-0.31349856577728996	0.6003331335144065	-6.396093777821438	-1.0894881691582736	0.9999619122075627	-6.3293309294671785	-0.5525567035890194	1.126880172137789	-7.035795232295494	0.2153304569413591	0.3821854595198933	-6.943095326863984	1.3401676632592727	0.36084833605684746	-6.867062194457072	2.1687735658872014	0.653848505219735									
